# xmcd CD database file
#
# Track frame offsets:
#	150
#	26970
#	46713
#	65690
#
# Disc length: 1230 seconds
#
# Revision: 0
# Processed by: cddbd v1.5.1PL2 Copyright (c) Steve Scherf et al.
# Submitted via: CDex 1.51
#
DISCID=3104cc04
DTITLE=舘 ひろし  - 貴女と...
DYEAR=2005
DGENRE=J-Pop
TTITLE0=貴女と...
TTITLE1=Kissで殺して
TTITLE2=冷たい太陽(another version)
TTITLE3=貴女と...(TV MIX)
EXTD=YEAR: 2005
EXTT0=
EXTT1=
EXTT2=
EXTT3=
PLAYORDER=
